<svg xmlns="http://www.w3.org/2000/svg" viewBox="0 0 41.52 41.52"><defs><style>.cls-1,.cls-2{fill:#5596cc;}.cls-2{fill-rule:evenodd;}</style></defs><title>Recurso 3</title><g id="Capa_2" data-name="Capa 2"><g id="INICIO"><g id="Botones_redes" data-name="Botones redes"><path class="cls-1" d="M20.76,0A20.76,20.76,0,1,1,6.08,6.08,20.68,20.68,0,0,1,20.76,0ZM34.3,7.23a19.16,19.16,0,1,0,5.6,13.53A19.12,19.12,0,0,0,34.3,7.23Z"/><path class="cls-2" d="M22.35,16.52v-1.7a.89.89,0,0,1,.93-1h2.38V10.17H22.38a4.12,4.12,0,0,0-4.46,4.44v1.91H15.81v4.24h2.13v10.6h4.25V20.76h3.13l.14-1.67.25-2.57Z"/></g></g></g></svg>